<svg xmlns="http://www.w3.org/2000/svg" width="99" height="98" viewBox="0 0 99 98">
    <g fill="none" fill-rule="evenodd">
        <path fill="#1781AA" d="M63.446 38c-.377 0-.75-.146-1.032-.44a1.48 1.48 0 01.018-2.07l4.104-4.075a1.445 1.445 0 012.05.023 1.48 1.48 0 01-.018 2.071l-4.104 4.075a1.45 1.45 0 01-1.018.416zM51.405 33a1.402 1.402 0 01-.994-2.393L62.603 18.41a1.407 1.407 0 011.986 0 1.402 1.402 0 010 1.984L52.397 32.59a1.4 1.4 0 01-.992.41z"/>
        <path fill="#05AECC" fill-rule="nonzero" d="M81 16.5a5.5 5.5 0 10-11 0 5.5 5.5 0 0011 0zm-9.429 0a3.929 3.929 0 117.858 0 3.929 3.929 0 01-7.858 0zM7 35.5a3.5 3.5 0 10-7 0 3.5 3.5 0 007 0zm-6 0a2.5 2.5 0 115 0 2.5 2.5 0 01-5 0z"/>
        <path fill="#1781AA" d="M93.5 0c.608 0 1.1.501 1.1 1.095v3.304l3.305.001c.564 0 1.03.425 1.089.98L99 5.5c0 .608-.501 1.1-1.095 1.1L94.6 6.599v3.306c0 .564-.425 1.03-.98 1.089L93.5 11c-.608 0-1.1-.501-1.1-1.095V6.6l-3.305.001A1.095 1.095 0 0188 5.5c0-.608.501-1.1 1.095-1.1l3.305-.001V1.095C92.4.49 92.888 0 93.5 0zM32.5 14c.608 0 1.1.501 1.1 1.095v3.304l3.305.001c.564 0 1.03.425 1.089.98l.006.12c0 .608-.501 1.1-1.095 1.1l-3.305-.001v3.306c0 .564-.425 1.03-.98 1.089L32.5 25c-.608 0-1.1-.501-1.1-1.095V20.6l-3.305.001A1.095 1.095 0 0127 19.5c0-.608.501-1.1 1.095-1.1l3.305-.001v-3.304c0-.605.488-1.095 1.1-1.095z"/>
        <path fill="#05AECC" d="M21.052 41.48C13.162 46.993 8 56.144 8 66.5 8 83.345 21.655 97 38.5 97S69 83.345 69 66.5c0-5.912-1.682-11.43-4.593-16.104C59.022 41.752 49.433 36 38.5 36a30.36 30.36 0 00-17.448 5.48z"/>
        <path fill="#1781AA" d="M58.79 74.022C52.72 87.514 42.532 85.092 39 97c17.12 0 31-13.631 31-30.446C70 57.612 66.075 49.57 59.825 44c-4.752 10.516 5.037 16.53-1.034 30.022z" opacity=".316"/>
        <path stroke="#034E79" stroke-linecap="round" stroke-linejoin="round" stroke-width="4" d="M8.35 56.497a30.374 30.374 0 013.9-8.11C17.736 40.306 26.998 35 37.5 35 54.345 35 68 48.655 68 65.5c0 5.949-1.703 11.5-4.648 16.191m-4.169 5.259a30.673 30.673 0 01-3.173 2.793m-5.55 3.375A30.383 30.383 0 0137.5 96C20.655 96 7 82.345 7 65.5"/>
        <path fill="#FFF" d="M50.418 60.244l-15.89 15.2a2.026 2.026 0 01-1.405.556 2.027 2.027 0 01-1.404-.556l-9.137-8.74a1.842 1.842 0 010-2.687 2.05 2.05 0 012.809 0l7.732 7.396L47.61 57.557a2.05 2.05 0 012.81 0 1.842 1.842 0 010 2.687z"/>
    </g>
</svg>
